<svg width="41" height="47" viewBox="0 0 41 47" fill="none" xmlns="http://www.w3.org/2000/svg">
<rect width="26" height="3" transform="matrix(0 -1 0.999775 -0.0212311 38 36.1634)" fill="white"/>
<rect width="26" height="3" transform="matrix(0 -1 0.999775 -0.0212311 0 36.1634)" fill="white"/>
<rect width="22.9209" height="2.98797" transform="matrix(0.894919 -0.446229 0.418033 0.908432 19.2386 20.4491)" fill="white"/>
<rect width="22.9206" height="2.9941" transform="matrix(0.895032 0.446001 -0.381511 0.924364 1.14229 10.1635)" fill="white"/>
<rect width="22.9212" height="2.98798" transform="matrix(0.894921 0.446224 0.418039 -0.908429 19.2382 2.71436)" fill="white"/>
<rect width="22.9212" height="2.99414" transform="matrix(0.894921 -0.446224 -0.381308 -0.924448 1.14169 13)" fill="white"/>
<rect width="22.9209" height="2.98797" transform="matrix(0.894919 -0.446228 0.418035 0.908431 19.2386 43.4491)" fill="white"/>
<rect width="22.9206" height="2.9941" transform="matrix(0.895033 0.446 -0.381512 0.924364 1.14228 33.1634)" fill="white"/>
<rect width="22.9212" height="2.98798" transform="matrix(0.894922 0.446223 0.418039 -0.908429 19.2382 25.8778)" fill="white"/>
<rect width="22.9212" height="2.99414" transform="matrix(0.894922 -0.446223 -0.381309 -0.924448 1.14169 36.1634)" fill="white"/>
</svg>
